<?xml version="1.0" encoding="UTF-8" standalone="no"?>
<!DOCTYPE svg PUBLIC "-//W3C//DTD SVG 1.1//EN"
 "http://www.w3.org/Graphics/SVG/1.1/DTD/svg11.dtd">
<!-- Generated by graphviz version 2.30.1 (20130214.1453)
 -->
<!-- Title: component_services Pages: 1 -->
<svg width="364pt" height="260pt"
 viewBox="0.00 0.00 364.00 260.00" xmlns="http://www.w3.org/2000/svg" xmlns:xlink="http://www.w3.org/1999/xlink">
<g id="graph0" class="graph" transform="scale(1 1) rotate(0) translate(4 256)">
<title>component_services</title>
<polygon fill="white" stroke="white" points="-4,5 -4,-256 361,-256 361,5 -4,5"/>
<!-- mongodb -->
<g id="node1" class="node"><title>mongodb</title>
<polygon fill="none" stroke="black" points="68.3897,-252 -0.389737,-252 -0.389737,-216 68.3897,-216 68.3897,-252"/>
<text text-anchor="middle" x="34" y="-228.4" font-family="Times,serif" font-size="14.00">mongodb</text>
</g>
<!-- redis -->
<g id="node2" class="node"><title>redis</title>
<polygon fill="none" stroke="black" points="356,-252 302,-252 302,-216 356,-216 356,-252"/>
<text text-anchor="middle" x="329" y="-228.4" font-family="Times,serif" font-size="14.00">redis</text>
</g>
<!-- solr -->
<g id="node3" class="node"><title>solr</title>
<polygon fill="none" stroke="black" points="140,-252 86,-252 86,-216 140,-216 140,-252"/>
<text text-anchor="middle" x="113" y="-228.4" font-family="Times,serif" font-size="14.00">solr</text>
</g>
<!-- smtp -->
<g id="node4" class="node"><title>smtp</title>
<polygon fill="none" stroke="black" points="284,-252 230,-252 230,-216 284,-216 284,-252"/>
<text text-anchor="middle" x="257" y="-228.4" font-family="Times,serif" font-size="14.00">smtp</text>
</g>
<!-- swift -->
<g id="node5" class="node"><title>swift</title>
<polygon fill="none" stroke="black" points="212,-252 158,-252 158,-216 212,-216 212,-252"/>
<text text-anchor="middle" x="185" y="-228.4" font-family="Times,serif" font-size="14.00">swift</text>
</g>
<!-- forgeapp -->
<g id="node6" class="node"><title>forgeapp</title>
<ellipse fill="none" stroke="black" cx="114" cy="-162" rx="45.3703" ry="18"/>
<text text-anchor="middle" x="114" y="-156.4" font-family="Times,serif" font-size="14.00">forgeapp</text>
</g>
<!-- forgeapp&#45;&#45;mongodb -->
<g id="edge1" class="edge"><title>forgeapp&#45;&#45;mongodb</title>
<path fill="none" stroke="black" d="M95.8468,-178.884C83.2153,-189.937 66.391,-204.658 53.4791,-215.956"/>
</g>
<!-- forgeapp&#45;&#45;redis -->
<g id="edge2" class="edge"><title>forgeapp&#45;&#45;redis</title>
<path fill="none" stroke="black" d="M148.299,-173.701C155.15,-175.811 162.298,-177.992 169,-180 223.971,-196.474 239.33,-195.684 293,-216 295.844,-217.077 298.774,-218.285 301.677,-219.549"/>
</g>
<!-- forgeapp&#45;&#45;solr -->
<g id="edge3" class="edge"><title>forgeapp&#45;&#45;solr</title>
<path fill="none" stroke="black" d="M113.753,-180.303C113.598,-191.154 113.399,-205.083 113.244,-215.896"/>
</g>
<!-- forgeapp&#45;&#45;swift -->
<g id="edge4" class="edge"><title>forgeapp&#45;&#45;swift</title>
<path fill="none" stroke="black" d="M130.111,-178.884C141.24,-189.856 156.035,-204.443 167.461,-215.708"/>
</g>
<!-- taskd -->
<g id="node7" class="node"><title>taskd</title>
<ellipse fill="none" stroke="black" cx="209" cy="-162" rx="31.3417" ry="18"/>
<text text-anchor="middle" x="209" y="-156.4" font-family="Times,serif" font-size="14.00">taskd</text>
</g>
<!-- taskd&#45;&#45;mongodb -->
<g id="edge5" class="edge"><title>taskd&#45;&#45;mongodb</title>
<path fill="none" stroke="black" d="M184.311,-173.314C178.941,-175.536 173.285,-177.859 168,-180 163.102,-181.984 106.273,-204.446 68.2123,-219.484"/>
</g>
<!-- taskd&#45;&#45;redis -->
<g id="edge6" class="edge"><title>taskd&#45;&#45;redis</title>
<path fill="none" stroke="black" d="M230.177,-175.353C250.094,-186.971 280.011,-204.423 301.709,-217.08"/>
</g>
<!-- taskd&#45;&#45;solr -->
<g id="edge7" class="edge"><title>taskd&#45;&#45;solr</title>
<path fill="none" stroke="black" d="M190.49,-176.497C175.125,-187.7 153.178,-203.703 136.561,-215.82"/>
</g>
<!-- taskd&#45;&#45;smtp -->
<g id="edge8" class="edge"><title>taskd&#45;&#45;smtp</title>
<path fill="none" stroke="black" d="M219.892,-178.884C227.416,-189.856 237.418,-204.443 245.143,-215.708"/>
</g>
<!-- taskd&#45;&#45;swift -->
<g id="edge9" class="edge"><title>taskd&#45;&#45;swift</title>
<path fill="none" stroke="black" d="M203.19,-179.945C199.472,-190.789 194.663,-204.817 190.923,-215.725"/>
</g>
<!-- taskd&#45;&#45;taskd -->
<g id="edge10" class="edge"><title>taskd&#45;&#45;taskd</title>
<path fill="none" stroke="black" d="M231.427,-149.397C245.08,-146.479 258,-150.68 258,-162 258,-173.32 245.08,-177.521 231.427,-174.603"/>
</g>
<!-- eventd -->
<g id="node8" class="node"><title>eventd</title>
<ellipse fill="none" stroke="black" cx="194" cy="-90" rx="36.5561" ry="18"/>
<text text-anchor="middle" x="194" y="-84.4" font-family="Times,serif" font-size="14.00">eventd</text>
</g>
<!-- eventd&#45;&#45;mongodb -->
<g id="edge11" class="edge"><title>eventd&#45;&#45;mongodb</title>
<path fill="none" stroke="black" d="M159.495,-95.9769C129.175,-102.132 85.9552,-115.528 60,-144 41.7812,-163.985 36.2773,-196.069 34.6462,-215.765"/>
</g>
<!-- eventd&#45;&#45;redis -->
<g id="edge12" class="edge"><title>eventd&#45;&#45;redis</title>
<path fill="none" stroke="black" d="M216.255,-104.353C231.546,-114.168 251.758,-128.457 267,-144 288.755,-166.184 308.223,-196.744 319.314,-215.667"/>
</g>
<!-- eventd&#45;&#45;forgeapp -->
<g id="edge13" class="edge"><title>eventd&#45;&#45;forgeapp</title>
<path fill="none" stroke="black" d="M176.641,-106.189C163.406,-117.769 145.241,-133.664 131.879,-145.356"/>
</g>
<!-- eventd&#45;&#45;taskd -->
<g id="edge14" class="edge"><title>eventd&#45;&#45;taskd</title>
<path fill="none" stroke="black" d="M197.631,-107.945C199.955,-118.789 202.961,-132.817 205.298,-143.725"/>
</g>
<!-- websocketapp -->
<g id="node9" class="node"><title>websocketapp</title>
<ellipse fill="none" stroke="black" cx="194" cy="-18" rx="65.9784" ry="18"/>
<text text-anchor="middle" x="194" y="-12.4" font-family="Times,serif" font-size="14.00">websocketapp</text>
</g>
<!-- websocketapp&#45;&#45;redis -->
<g id="edge15" class="edge"><title>websocketapp&#45;&#45;redis</title>
<path fill="none" stroke="black" d="M208.335,-35.586C217.249,-45.973 228.897,-59.6791 239,-72 264.878,-103.561 275.992,-108.427 296,-144 309.249,-167.556 319.066,-197.456 324.411,-215.905"/>
</g>
<!-- websocketapp&#45;&#45;forgeapp -->
<g id="edge16" class="edge"><title>websocketapp&#45;&#45;forgeapp</title>
<path fill="none" stroke="black" d="M177.012,-35.4671C167.516,-45.3728 156.016,-58.6228 148,-72 134.057,-95.2685 124.025,-125.25 118.615,-143.794"/>
</g>
<!-- websocketapp&#45;&#45;eventd -->
<g id="edge17" class="edge"><title>websocketapp&#45;&#45;eventd</title>
<path fill="none" stroke="black" d="M194,-36.3034C194,-47.1537 194,-61.0833 194,-71.8957"/>
</g>
</g>
</svg>
