<?xml version="1.0" encoding="UTF-8" standalone="no"?>
<!DOCTYPE svg PUBLIC "-//W3C//DTD SVG 1.1//EN"
 "http://www.w3.org/Graphics/SVG/1.1/DTD/svg11.dtd">
<!-- Generated by graphviz version 2.30.1 (20130214.1453)
 -->
<!-- Title: component_services Pages: 1 -->
<svg width="431pt" height="260pt"
 viewBox="0.00 0.00 431.00 260.00" xmlns="http://www.w3.org/2000/svg" xmlns:xlink="http://www.w3.org/1999/xlink">
<g id="graph0" class="graph" transform="scale(1 1) rotate(0) translate(4 256)">
<title>component_services</title>
<polygon fill="white" stroke="white" points="-4,5 -4,-256 428,-256 428,5 -4,5"/>
<!-- forgeapp -->
<g id="node1" class="node"><title>forgeapp</title>
<ellipse fill="none" stroke="black" cx="213" cy="-18" rx="45.3703" ry="18"/>
<text text-anchor="middle" x="213" y="-12.4" font-family="Times,serif" font-size="14.00">forgeapp</text>
</g>
<!-- mongodb -->
<g id="node3" class="node"><title>mongodb</title>
<polygon fill="none" stroke="black" points="207.39,-252 138.61,-252 138.61,-216 207.39,-216 207.39,-252"/>
<text text-anchor="middle" x="173" y="-228.4" font-family="Times,serif" font-size="14.00">mongodb</text>
</g>
<!-- forgeapp&#45;&#45;mongodb -->
<g id="edge1" class="edge"><title>forgeapp&#45;&#45;mongodb</title>
<path fill="none" stroke="black" d="M209.794,-36.1508C202.305,-76.2205 183.726,-175.617 176.221,-215.768"/>
</g>
<!-- redis -->
<g id="node4" class="node"><title>redis</title>
<polygon fill="none" stroke="black" points="114,-252 60,-252 60,-216 114,-216 114,-252"/>
<text text-anchor="middle" x="87" y="-228.4" font-family="Times,serif" font-size="14.00">redis</text>
</g>
<!-- forgeapp&#45;&#45;redis -->
<g id="edge2" class="edge"><title>forgeapp&#45;&#45;redis</title>
<path fill="none" stroke="black" d="M173.922,-27.2363C149.128,-34.6123 118.678,-48.093 102,-72 71.2424,-116.09 78.1075,-184.309 83.5193,-215.886"/>
</g>
<!-- solr -->
<g id="node5" class="node"><title>solr</title>
<polygon fill="none" stroke="black" points="351,-252 297,-252 297,-216 351,-216 351,-252"/>
<text text-anchor="middle" x="324" y="-228.4" font-family="Times,serif" font-size="14.00">solr</text>
</g>
<!-- forgeapp&#45;&#45;solr -->
<g id="edge3" class="edge"><title>forgeapp&#45;&#45;solr</title>
<path fill="none" stroke="black" d="M230.88,-34.7176C254.431,-56.5999 295.071,-98.6911 314,-144 323.83,-167.529 325.169,-197.437 324.862,-215.895"/>
</g>
<!-- swift -->
<g id="node7" class="node"><title>swift</title>
<polygon fill="none" stroke="black" points="423,-252 369,-252 369,-216 423,-216 423,-252"/>
<text text-anchor="middle" x="396" y="-228.4" font-family="Times,serif" font-size="14.00">swift</text>
</g>
<!-- forgeapp&#45;&#45;swift -->
<g id="edge4" class="edge"><title>forgeapp&#45;&#45;swift</title>
<path fill="none" stroke="black" d="M240.25,-32.6212C257.328,-42.067 279.048,-55.8304 295,-72 339.261,-116.864 373.699,-184.404 388.333,-215.81"/>
</g>
<!-- websocketapp -->
<g id="node2" class="node"><title>websocketapp</title>
<ellipse fill="none" stroke="black" cx="65" cy="-18" rx="65.9784" ry="18"/>
<text text-anchor="middle" x="65" y="-12.4" font-family="Times,serif" font-size="14.00">websocketapp</text>
</g>
<!-- websocketapp&#45;&#45;forgeapp -->
<g id="edge15" class="edge"><title>websocketapp&#45;&#45;forgeapp</title>
<path fill="none" stroke="black" d="M130.617,-18C142.953,-18 155.289,-18 167.625,-18"/>
</g>
<!-- websocketapp&#45;&#45;redis -->
<g id="edge16" class="edge"><title>websocketapp&#45;&#45;redis</title>
<path fill="none" stroke="black" d="M63.7473,-36.0898C61.95,-65.6785 59.7901,-128.248 69,-180 71.1794,-192.246 75.6794,-205.496 79.6345,-215.685"/>
</g>
<!-- eventd -->
<g id="node9" class="node"><title>eventd</title>
<ellipse fill="none" stroke="black" cx="148" cy="-90" rx="36.5561" ry="18"/>
<text text-anchor="middle" x="148" y="-84.4" font-family="Times,serif" font-size="14.00">eventd</text>
</g>
<!-- websocketapp&#45;&#45;eventd -->
<g id="edge17" class="edge"><title>websocketapp&#45;&#45;eventd</title>
<path fill="none" stroke="black" d="M84.2505,-35.2354C98.1382,-46.9479 116.746,-62.6409 130.271,-74.0477"/>
</g>
<!-- smtp -->
<g id="node6" class="node"><title>smtp</title>
<polygon fill="none" stroke="black" points="279,-252 225,-252 225,-216 279,-216 279,-252"/>
<text text-anchor="middle" x="252" y="-228.4" font-family="Times,serif" font-size="14.00">smtp</text>
</g>
<!-- taskd -->
<g id="node8" class="node"><title>taskd</title>
<ellipse fill="none" stroke="black" cx="256" cy="-162" rx="31.3417" ry="18"/>
<text text-anchor="middle" x="256" y="-156.4" font-family="Times,serif" font-size="14.00">taskd</text>
</g>
<!-- taskd&#45;&#45;mongodb -->
<g id="edge5" class="edge"><title>taskd&#45;&#45;mongodb</title>
<path fill="none" stroke="black" d="M238.802,-177.504C225.602,-188.637 207.337,-204.041 193.399,-215.796"/>
</g>
<!-- taskd&#45;&#45;redis -->
<g id="edge6" class="edge"><title>taskd&#45;&#45;redis</title>
<path fill="none" stroke="black" d="M231.426,-173.179C200.209,-186.109 146.51,-208.351 114.123,-221.766"/>
</g>
<!-- taskd&#45;&#45;solr -->
<g id="edge7" class="edge"><title>taskd&#45;&#45;solr</title>
<path fill="none" stroke="black" d="M270.755,-178.189C281.536,-189.287 296.166,-204.347 307.363,-215.873"/>
</g>
<!-- taskd&#45;&#45;smtp -->
<g id="edge8" class="edge"><title>taskd&#45;&#45;smtp</title>
<path fill="none" stroke="black" d="M255.011,-180.303C254.391,-191.154 253.595,-205.083 252.977,-215.896"/>
</g>
<!-- taskd&#45;&#45;swift -->
<g id="edge9" class="edge"><title>taskd&#45;&#45;swift</title>
<path fill="none" stroke="black" d="M278.805,-174.403C303.444,-186.722 342.686,-206.343 368.886,-219.443"/>
</g>
<!-- taskd&#45;&#45;taskd -->
<g id="edge10" class="edge"><title>taskd&#45;&#45;taskd</title>
<path fill="none" stroke="black" d="M278.427,-149.397C292.08,-146.479 305,-150.68 305,-162 305,-173.32 292.08,-177.521 278.427,-174.603"/>
</g>
<!-- eventd&#45;&#45;forgeapp -->
<g id="edge11" class="edge"><title>eventd&#45;&#45;forgeapp</title>
<path fill="none" stroke="black" d="M162.547,-73.3342C173.078,-61.9932 187.273,-46.7056 197.924,-35.2354"/>
</g>
<!-- eventd&#45;&#45;mongodb -->
<g id="edge12" class="edge"><title>eventd&#45;&#45;mongodb</title>
<path fill="none" stroke="black" d="M151.016,-108.129C155.821,-135.422 165.162,-188.48 169.974,-215.811"/>
</g>
<!-- eventd&#45;&#45;redis -->
<g id="edge13" class="edge"><title>eventd&#45;&#45;redis</title>
<path fill="none" stroke="black" d="M140.763,-107.847C129.086,-135.029 106.209,-188.283 94.4179,-215.732"/>
</g>
<!-- eventd&#45;&#45;taskd -->
<g id="edge14" class="edge"><title>eventd&#45;&#45;taskd</title>
<path fill="none" stroke="black" d="M169.337,-104.83C188.64,-117.341 216.862,-135.633 235.803,-147.909"/>
</g>
</g>
</svg>
