<?xml version="1.0" encoding="UTF-8" standalone="no"?>
<!DOCTYPE svg PUBLIC "-//W3C//DTD SVG 1.1//EN"
 "http://www.w3.org/Graphics/SVG/1.1/DTD/svg11.dtd">
<!-- Generated by graphviz version 2.30.1 (20130214.1453)
 -->
<!-- Title: component_services Pages: 1 -->
<svg width="223pt" height="240pt"
 viewBox="0.00 0.00 222.96 239.66" xmlns="http://www.w3.org/2000/svg" xmlns:xlink="http://www.w3.org/1999/xlink">
<g id="graph0" class="graph" transform="scale(1 1) rotate(0) translate(4 235.66)">
<title>component_services</title>
<polygon fill="white" stroke="white" points="-4,5 -4,-235.66 219.963,-235.66 219.963,5 -4,5"/>
<!-- forgeapp -->
<g id="node1" class="node"><title>forgeapp</title>
<ellipse fill="none" stroke="black" cx="88.888" cy="-134.175" rx="45.3703" ry="18"/>
<text text-anchor="middle" x="88.888" y="-128.575" font-family="Times,serif" font-size="14.00">forgeapp</text>
</g>
<!-- taskd -->
<g id="node3" class="node"><title>taskd</title>
<ellipse fill="none" stroke="black" cx="117.005" cy="-92.3673" rx="31.3417" ry="18"/>
<text text-anchor="middle" x="117.005" y="-86.7673" font-family="Times,serif" font-size="14.00">taskd</text>
</g>
<!-- forgeapp&#45;&#45;taskd -->
<g id="edge1" class="edge"><title>forgeapp&#45;&#45;taskd</title>
<path fill="none" stroke="black" d="M100.649,-116.687C102.275,-114.27 103.942,-111.791 105.561,-109.383"/>
</g>
<!-- mongodb -->
<g id="node5" class="node"><title>mongodb</title>
<polygon fill="none" stroke="black" points="214.908,-128.549 146.128,-128.549 146.128,-92.5485 214.908,-92.5485 214.908,-128.549"/>
<text text-anchor="middle" x="180.518" y="-104.949" font-family="Times,serif" font-size="14.00">mongodb</text>
</g>
<!-- forgeapp&#45;&#45;mongodb -->
<g id="edge2" class="edge"><title>forgeapp&#45;&#45;mongodb</title>
<path fill="none" stroke="black" d="M126.951,-124.36C133.245,-122.737 139.74,-121.063 145.942,-119.464"/>
</g>
<!-- redis -->
<g id="node6" class="node"><title>redis</title>
<polygon fill="none" stroke="black" points="143.683,-202.857 89.683,-202.857 89.683,-166.857 143.683,-166.857 143.683,-202.857"/>
<text text-anchor="middle" x="116.683" y="-179.257" font-family="Times,serif" font-size="14.00">redis</text>
</g>
<!-- forgeapp&#45;&#45;redis -->
<g id="edge3" class="edge"><title>forgeapp&#45;&#45;redis</title>
<path fill="none" stroke="black" d="M98.6093,-151.901C101.239,-156.696 104.089,-161.893 106.732,-166.712"/>
</g>
<!-- solr -->
<g id="node7" class="node"><title>solr</title>
<polygon fill="none" stroke="black" points="54,-125.43 0,-125.43 0,-89.4303 54,-89.4303 54,-125.43"/>
<text text-anchor="middle" x="27" y="-101.83" font-family="Times,serif" font-size="14.00">solr</text>
</g>
<!-- forgeapp&#45;&#45;solr -->
<g id="edge4" class="edge"><title>forgeapp&#45;&#45;solr</title>
<path fill="none" stroke="black" d="M57.944,-120.802C56.7352,-120.28 55.5265,-119.758 54.3251,-119.239"/>
</g>
<!-- swift -->
<g id="node9" class="node"><title>swift</title>
<polygon fill="none" stroke="black" points="87.1638,-71.9583 33.1638,-71.9583 33.1638,-35.9583 87.1638,-35.9583 87.1638,-71.9583"/>
<text text-anchor="middle" x="60.1638" y="-48.3583" font-family="Times,serif" font-size="14.00">swift</text>
</g>
<!-- forgeapp&#45;&#45;swift -->
<g id="edge5" class="edge"><title>forgeapp&#45;&#45;swift</title>
<path fill="none" stroke="black" d="M82.37,-115.972C77.6691,-102.844 71.3509,-85.1999 66.656,-72.0886"/>
</g>
<!-- websocketapp -->
<g id="node2" class="node"><title>websocketapp</title>
<ellipse fill="none" stroke="black" cx="77.0898" cy="-213.66" rx="65.9784" ry="18"/>
<text text-anchor="middle" x="77.0898" y="-208.06" font-family="Times,serif" font-size="14.00">websocketapp</text>
</g>
<!-- websocketapp&#45;&#45;forgeapp -->
<g id="edge16" class="edge"><title>websocketapp&#45;&#45;forgeapp</title>
<path fill="none" stroke="black" d="M79.767,-195.623C81.6842,-182.707 84.2564,-165.377 86.1805,-152.415"/>
</g>
<!-- eventd -->
<g id="node4" class="node"><title>eventd</title>
<ellipse fill="none" stroke="black" cx="154.251" cy="-163.758" rx="36.5561" ry="18"/>
<text text-anchor="middle" x="154.251" y="-158.158" font-family="Times,serif" font-size="14.00">eventd</text>
</g>
<!-- websocketapp&#45;&#45;eventd -->
<g id="edge17" class="edge"><title>websocketapp&#45;&#45;eventd</title>
<path fill="none" stroke="black" d="M102.783,-197.043C112.253,-190.919 122.893,-184.038 132.03,-178.129"/>
</g>
<!-- websocketapp&#45;&#45;redis -->
<g id="edge18" class="edge"><title>websocketapp&#45;&#45;redis</title>
<path fill="none" stroke="black" d="M100.579,-196.572C100.712,-196.475 100.845,-196.379 100.978,-196.282"/>
</g>
<!-- taskd&#45;&#45;taskd -->
<g id="edge6" class="edge"><title>taskd&#45;&#45;taskd</title>
<path fill="none" stroke="black" d="M146.432,-99.1024C157.399,-99.3233 166.426,-97.0782 166.426,-92.3673 166.426,-87.6563 157.399,-85.4113 146.432,-85.6321"/>
</g>
<!-- taskd&#45;&#45;mongodb -->
<g id="edge7" class="edge"><title>taskd&#45;&#45;mongodb</title>
<path fill="none" stroke="black" d="M145.418,-100.501C145.55,-100.539 145.682,-100.576 145.814,-100.614"/>
</g>
<!-- taskd&#45;&#45;redis -->
<g id="edge8" class="edge"><title>taskd&#45;&#45;redis</title>
<path fill="none" stroke="black" d="M116.942,-110.64C116.885,-126.855 116.803,-150.419 116.747,-166.622"/>
</g>
<!-- taskd&#45;&#45;solr -->
<g id="edge9" class="edge"><title>taskd&#45;&#45;solr</title>
<path fill="none" stroke="black" d="M86.5336,-97.4669C76.0279,-99.2251 64.3387,-101.181 54.119,-102.892"/>
</g>
<!-- smtp -->
<g id="node8" class="node"><title>smtp</title>
<polygon fill="none" stroke="black" points="180.604,-36 126.604,-36 126.604,-0 180.604,-0 180.604,-36"/>
<text text-anchor="middle" x="153.604" y="-12.4" font-family="Times,serif" font-size="14.00">smtp</text>
</g>
<!-- taskd&#45;&#45;smtp -->
<g id="edge10" class="edge"><title>taskd&#45;&#45;smtp</title>
<path fill="none" stroke="black" d="M125.679,-74.7433C131.428,-63.0603 138.95,-47.7761 144.738,-36.0141"/>
</g>
<!-- taskd&#45;&#45;swift -->
<g id="edge11" class="edge"><title>taskd&#45;&#45;swift</title>
<path fill="none" stroke="black" d="M96.4842,-78.5008C93.4314,-76.4379 90.2465,-74.2858 87.0864,-72.1505"/>
</g>
<!-- eventd&#45;&#45;forgeapp -->
<g id="edge12" class="edge"><title>eventd&#45;&#45;forgeapp</title>
<path fill="none" stroke="black" d="M126.91,-151.383C124.251,-150.18 121.544,-148.955 118.862,-147.741"/>
</g>
<!-- eventd&#45;&#45;taskd -->
<g id="edge13" class="edge"><title>eventd&#45;&#45;taskd</title>
<path fill="none" stroke="black" d="M145.044,-146.111C139.271,-135.045 131.859,-120.839 126.106,-109.811"/>
</g>
<!-- eventd&#45;&#45;mongodb -->
<g id="edge14" class="edge"><title>eventd&#45;&#45;mongodb</title>
<path fill="none" stroke="black" d="M162.998,-146.04C165.744,-140.477 168.779,-134.329 171.541,-128.735"/>
</g>
<!-- eventd&#45;&#45;redis -->
<g id="edge15" class="edge"><title>eventd&#45;&#45;redis</title>
<path fill="none" stroke="black" d="M129.823,-177.478C129.71,-177.541 129.599,-177.603 129.487,-177.666"/>
</g>
</g>
</svg>
