<?xml version="1.0" encoding="UTF-8" standalone="no"?>
<!DOCTYPE svg PUBLIC "-//W3C//DTD SVG 1.1//EN"
 "http://www.w3.org/Graphics/SVG/1.1/DTD/svg11.dtd">
<!-- Generated by graphviz version 2.30.1 (20130214.1453)
 -->
<!-- Title: component_services Pages: 1 -->
<svg width="294pt" height="260pt"
 viewBox="0.00 0.00 294.00 260.00" xmlns="http://www.w3.org/2000/svg" xmlns:xlink="http://www.w3.org/1999/xlink">
<g id="graph0" class="graph" transform="scale(1 1) rotate(0) translate(4 256)">
<title>component_services</title>
<polygon fill="white" stroke="white" points="-4,5 -4,-256 291,-256 291,5 -4,5"/>
<!-- mongodb -->
<g id="node1" class="node"><title>mongodb</title>
<polygon fill="none" stroke="black" points="68.3897,-252 -0.389737,-252 -0.389737,-216 68.3897,-216 68.3897,-252"/>
<text text-anchor="middle" x="34" y="-228.4" font-family="Times,serif" font-size="14.00">mongodb</text>
</g>
<!-- redis -->
<g id="node2" class="node"><title>redis</title>
<polygon fill="none" stroke="black" points="286,-252 232,-252 232,-216 286,-216 286,-252"/>
<text text-anchor="middle" x="259" y="-228.4" font-family="Times,serif" font-size="14.00">redis</text>
</g>
<!-- solr -->
<g id="node3" class="node"><title>solr</title>
<polygon fill="none" stroke="black" points="140,-252 86,-252 86,-216 140,-216 140,-252"/>
<text text-anchor="middle" x="113" y="-228.4" font-family="Times,serif" font-size="14.00">solr</text>
</g>
<!-- swift -->
<g id="node4" class="node"><title>swift</title>
<polygon fill="none" stroke="black" points="212,-252 158,-252 158,-216 212,-216 212,-252"/>
<text text-anchor="middle" x="185" y="-228.4" font-family="Times,serif" font-size="14.00">swift</text>
</g>
<!-- forgeapp -->
<g id="node5" class="node"><title>forgeapp</title>
<ellipse fill="none" stroke="black" cx="90" cy="-162" rx="45.3703" ry="18"/>
<text text-anchor="middle" x="90" y="-156.4" font-family="Times,serif" font-size="14.00">forgeapp</text>
</g>
<!-- forgeapp&#45;&#45;mongodb -->
<g id="edge1" class="edge"><title>forgeapp&#45;&#45;mongodb</title>
<path fill="none" stroke="black" d="M76.7288,-179.589C68.0607,-190.424 56.7599,-204.55 47.9574,-215.553"/>
</g>
<!-- forgeapp&#45;&#45;redis -->
<g id="edge2" class="edge"><title>forgeapp&#45;&#45;redis</title>
<path fill="none" stroke="black" d="M121.099,-175.214C147.724,-185.76 187.028,-201.534 221,-216 224.458,-217.472 228.079,-219.048 231.654,-220.624"/>
</g>
<!-- forgeapp&#45;&#45;solr -->
<g id="edge3" class="edge"><title>forgeapp&#45;&#45;solr</title>
<path fill="none" stroke="black" d="M95.5677,-179.945C99.1307,-190.789 103.74,-204.817 107.324,-215.725"/>
</g>
<!-- forgeapp&#45;&#45;swift -->
<g id="edge4" class="edge"><title>forgeapp&#45;&#45;swift</title>
<path fill="none" stroke="black" d="M110.614,-178.189C125.675,-189.287 146.114,-204.347 161.757,-215.873"/>
</g>
<!-- taskd -->
<g id="node6" class="node"><title>taskd</title>
<ellipse fill="none" stroke="black" cx="185" cy="-162" rx="31.3417" ry="18"/>
<text text-anchor="middle" x="185" y="-156.4" font-family="Times,serif" font-size="14.00">taskd</text>
</g>
<!-- taskd&#45;&#45;mongodb -->
<g id="edge5" class="edge"><title>taskd&#45;&#45;mongodb</title>
<path fill="none" stroke="black" d="M161.406,-173.938C136.439,-185.512 96.7944,-203.89 68.3587,-217.072"/>
</g>
<!-- taskd&#45;&#45;redis -->
<g id="edge6" class="edge"><title>taskd&#45;&#45;redis</title>
<path fill="none" stroke="black" d="M200.693,-177.845C212.488,-189.002 228.664,-204.304 240.986,-215.96"/>
</g>
<!-- taskd&#45;&#45;solr -->
<g id="edge7" class="edge"><title>taskd&#45;&#45;solr</title>
<path fill="none" stroke="black" d="M169.731,-177.845C158.255,-189.002 142.516,-204.304 130.527,-215.96"/>
</g>
<!-- taskd&#45;&#45;swift -->
<g id="edge8" class="edge"><title>taskd&#45;&#45;swift</title>
<path fill="none" stroke="black" d="M185,-180.303C185,-191.154 185,-205.083 185,-215.896"/>
</g>
<!-- taskd&#45;&#45;taskd -->
<g id="edge9" class="edge"><title>taskd&#45;&#45;taskd</title>
<path fill="none" stroke="black" d="M207.427,-149.397C221.08,-146.479 234,-150.68 234,-162 234,-173.32 221.08,-177.521 207.427,-174.603"/>
</g>
<!-- eventd -->
<g id="node7" class="node"><title>eventd</title>
<ellipse fill="none" stroke="black" cx="170" cy="-90" rx="36.5561" ry="18"/>
<text text-anchor="middle" x="170" y="-84.4" font-family="Times,serif" font-size="14.00">eventd</text>
</g>
<!-- eventd&#45;&#45;mongodb -->
<g id="edge10" class="edge"><title>eventd&#45;&#45;mongodb</title>
<path fill="none" stroke="black" d="M134.539,-94.3314C102.896,-99.38 58.2319,-112.076 36,-144 21.2498,-165.18 24.8929,-196.601 29.2088,-215.888"/>
</g>
<!-- eventd&#45;&#45;redis -->
<g id="edge11" class="edge"><title>eventd&#45;&#45;redis</title>
<path fill="none" stroke="black" d="M195.62,-103.126C211.785,-112.127 231.68,-125.958 243,-144 256.851,-166.075 259.466,-196.943 259.593,-215.919"/>
</g>
<!-- eventd&#45;&#45;forgeapp -->
<g id="edge12" class="edge"><title>eventd&#45;&#45;forgeapp</title>
<path fill="none" stroke="black" d="M152.641,-106.189C139.406,-117.769 121.241,-133.664 107.879,-145.356"/>
</g>
<!-- eventd&#45;&#45;taskd -->
<g id="edge13" class="edge"><title>eventd&#45;&#45;taskd</title>
<path fill="none" stroke="black" d="M173.631,-107.945C175.955,-118.789 178.961,-132.817 181.298,-143.725"/>
</g>
<!-- websocketapp -->
<g id="node8" class="node"><title>websocketapp</title>
<ellipse fill="none" stroke="black" cx="170" cy="-18" rx="65.9784" ry="18"/>
<text text-anchor="middle" x="170" y="-12.4" font-family="Times,serif" font-size="14.00">websocketapp</text>
</g>
<!-- websocketapp&#45;&#45;redis -->
<g id="edge14" class="edge"><title>websocketapp&#45;&#45;redis</title>
<path fill="none" stroke="black" d="M188.474,-35.361C211.665,-57.3271 250.093,-98.8473 264,-144 271.425,-168.108 267.368,-197.597 263.44,-215.842"/>
</g>
<!-- websocketapp&#45;&#45;forgeapp -->
<g id="edge15" class="edge"><title>websocketapp&#45;&#45;forgeapp</title>
<path fill="none" stroke="black" d="M153.012,-35.4671C143.516,-45.3728 132.016,-58.6228 124,-72 110.057,-95.2685 100.025,-125.25 94.6148,-143.794"/>
</g>
<!-- websocketapp&#45;&#45;eventd -->
<g id="edge16" class="edge"><title>websocketapp&#45;&#45;eventd</title>
<path fill="none" stroke="black" d="M170,-36.3034C170,-47.1537 170,-61.0833 170,-71.8957"/>
</g>
</g>
</svg>
