<?xml version="1.0" encoding="UTF-8" standalone="no"?>
<!DOCTYPE svg PUBLIC "-//W3C//DTD SVG 1.1//EN"
 "http://www.w3.org/Graphics/SVG/1.1/DTD/svg11.dtd">
<!-- Generated by graphviz version 2.30.1 (20130214.1453)
 -->
<!-- Title: component_services Pages: 1 -->
<svg width="450pt" height="188pt"
 viewBox="0.00 0.00 450.00 188.00" xmlns="http://www.w3.org/2000/svg" xmlns:xlink="http://www.w3.org/1999/xlink">
<g id="graph0" class="graph" transform="scale(1 1) rotate(0) translate(4 184)">
<title>component_services</title>
<polygon fill="white" stroke="white" points="-4,5 -4,-184 447,-184 447,5 -4,5"/>
<!-- forgeapp -->
<g id="node1" class="node"><title>forgeapp</title>
<ellipse fill="none" stroke="black" cx="213" cy="-18" rx="45.3703" ry="18"/>
<text text-anchor="middle" x="213" y="-12.4" font-family="Times,serif" font-size="14.00">forgeapp</text>
</g>
<!-- mongodb -->
<g id="node5" class="node"><title>mongodb</title>
<polygon fill="none" stroke="black" points="226.39,-180 157.61,-180 157.61,-144 226.39,-144 226.39,-180"/>
<text text-anchor="middle" x="192" y="-156.4" font-family="Times,serif" font-size="14.00">mongodb</text>
</g>
<!-- forgeapp&#45;&#45;mongodb -->
<g id="edge1" class="edge"><title>forgeapp&#45;&#45;mongodb</title>
<path fill="none" stroke="black" d="M210.467,-36.1285C206.431,-63.4216 198.584,-116.48 194.542,-143.811"/>
</g>
<!-- redis -->
<g id="node6" class="node"><title>redis</title>
<polygon fill="none" stroke="black" points="138,-180 84,-180 84,-144 138,-144 138,-180"/>
<text text-anchor="middle" x="111" y="-156.4" font-family="Times,serif" font-size="14.00">redis</text>
</g>
<!-- forgeapp&#45;&#45;redis -->
<g id="edge2" class="edge"><title>forgeapp&#45;&#45;redis</title>
<path fill="none" stroke="black" d="M202.865,-35.7885C191.702,-53.9753 172.947,-83.6535 155,-108 145.917,-120.322 134.917,-133.572 126.188,-143.741"/>
</g>
<!-- solr -->
<g id="node7" class="node"><title>solr</title>
<polygon fill="none" stroke="black" points="442,-180 388,-180 388,-144 442,-144 442,-180"/>
<text text-anchor="middle" x="415" y="-156.4" font-family="Times,serif" font-size="14.00">solr</text>
</g>
<!-- forgeapp&#45;&#45;solr -->
<g id="edge3" class="edge"><title>forgeapp&#45;&#45;solr</title>
<path fill="none" stroke="black" d="M251.716,-27.4325C281.175,-35.2867 321.534,-49.2713 351,-72 376.467,-91.6443 396.201,-124.139 406.673,-143.956"/>
</g>
<!-- swift -->
<g id="node9" class="node"><title>swift</title>
<polygon fill="none" stroke="black" points="370,-180 316,-180 316,-144 370,-144 370,-180"/>
<text text-anchor="middle" x="343" y="-156.4" font-family="Times,serif" font-size="14.00">swift</text>
</g>
<!-- forgeapp&#45;&#45;swift -->
<g id="edge4" class="edge"><title>forgeapp&#45;&#45;swift</title>
<path fill="none" stroke="black" d="M252.579,-26.6518C278.704,-33.8359 311.426,-47.3247 330,-72 345.683,-92.8347 346.437,-124.361 345.065,-143.763"/>
</g>
<!-- websocketapp -->
<g id="node2" class="node"><title>websocketapp</title>
<ellipse fill="none" stroke="black" cx="65" cy="-18" rx="65.9784" ry="18"/>
<text text-anchor="middle" x="65" y="-12.4" font-family="Times,serif" font-size="14.00">websocketapp</text>
</g>
<!-- websocketapp&#45;&#45;forgeapp -->
<g id="edge15" class="edge"><title>websocketapp&#45;&#45;forgeapp</title>
<path fill="none" stroke="black" d="M130.617,-18C142.953,-18 155.289,-18 167.625,-18"/>
</g>
<!-- eventd -->
<g id="node4" class="node"><title>eventd</title>
<ellipse fill="none" stroke="black" cx="110" cy="-90" rx="36.5561" ry="18"/>
<text text-anchor="middle" x="110" y="-84.4" font-family="Times,serif" font-size="14.00">eventd</text>
</g>
<!-- websocketapp&#45;&#45;eventd -->
<g id="edge16" class="edge"><title>websocketapp&#45;&#45;eventd</title>
<path fill="none" stroke="black" d="M75.8932,-35.945C83.0724,-47.1126 92.4226,-61.6573 99.5169,-72.693"/>
</g>
<!-- websocketapp&#45;&#45;redis -->
<g id="edge17" class="edge"><title>websocketapp&#45;&#45;redis</title>
<path fill="none" stroke="black" d="M61.2214,-36.0417C57.9473,-54.4451 55.0079,-84.3071 64,-108 69.2366,-121.798 79.891,-134.305 89.7334,-143.701"/>
</g>
<!-- taskd -->
<g id="node3" class="node"><title>taskd</title>
<ellipse fill="none" stroke="black" cx="272" cy="-90" rx="31.3417" ry="18"/>
<text text-anchor="middle" x="272" y="-84.4" font-family="Times,serif" font-size="14.00">taskd</text>
</g>
<!-- taskd&#45;&#45;taskd -->
<g id="edge5" class="edge"><title>taskd&#45;&#45;taskd</title>
<path fill="none" stroke="black" d="M294.427,-77.3973C308.08,-74.4788 321,-78.6797 321,-90 321,-101.32 308.08,-105.521 294.427,-102.603"/>
</g>
<!-- taskd&#45;&#45;mongodb -->
<g id="edge6" class="edge"><title>taskd&#45;&#45;mongodb</title>
<path fill="none" stroke="black" d="M255.424,-105.504C242.701,-116.637 225.096,-132.041 211.661,-143.796"/>
</g>
<!-- taskd&#45;&#45;redis -->
<g id="edge7" class="edge"><title>taskd&#45;&#45;redis</title>
<path fill="none" stroke="black" d="M247.453,-101.459C222.595,-112.079 183.064,-129.042 149,-144 145.559,-145.511 141.948,-147.11 138.378,-148.698"/>
</g>
<!-- taskd&#45;&#45;solr -->
<g id="edge8" class="edge"><title>taskd&#45;&#45;solr</title>
<path fill="none" stroke="black" d="M294.975,-102.247C320.24,-114.614 360.808,-134.473 387.682,-147.627"/>
</g>
<!-- smtp -->
<g id="node8" class="node"><title>smtp</title>
<polygon fill="none" stroke="black" points="298,-180 244,-180 244,-144 298,-144 298,-180"/>
<text text-anchor="middle" x="271" y="-156.4" font-family="Times,serif" font-size="14.00">smtp</text>
</g>
<!-- taskd&#45;&#45;smtp -->
<g id="edge9" class="edge"><title>taskd&#45;&#45;smtp</title>
<path fill="none" stroke="black" d="M271.753,-108.303C271.598,-119.154 271.399,-133.083 271.244,-143.896"/>
</g>
<!-- taskd&#45;&#45;swift -->
<g id="edge10" class="edge"><title>taskd&#45;&#45;swift</title>
<path fill="none" stroke="black" d="M287.057,-105.845C298.374,-117.002 313.894,-132.304 325.717,-143.96"/>
</g>
<!-- eventd&#45;&#45;forgeapp -->
<g id="edge11" class="edge"><title>eventd&#45;&#45;forgeapp</title>
<path fill="none" stroke="black" d="M130.758,-74.8924C148.292,-62.9766 173.323,-45.9652 191.156,-33.8452"/>
</g>
<!-- eventd&#45;&#45;taskd -->
<g id="edge12" class="edge"><title>eventd&#45;&#45;taskd</title>
<path fill="none" stroke="black" d="M146.703,-90C178.027,-90 209.352,-90 240.676,-90"/>
</g>
<!-- eventd&#45;&#45;mongodb -->
<g id="edge13" class="edge"><title>eventd&#45;&#45;mongodb</title>
<path fill="none" stroke="black" d="M127.39,-105.845C140.46,-117.002 158.384,-132.304 172.039,-143.96"/>
</g>
<!-- eventd&#45;&#45;redis -->
<g id="edge14" class="edge"><title>eventd&#45;&#45;redis</title>
<path fill="none" stroke="black" d="M110.247,-108.303C110.402,-119.154 110.601,-133.083 110.756,-143.896"/>
</g>
</g>
</svg>
