<?xml version="1.0" encoding="UTF-8" standalone="no"?>
<!DOCTYPE svg PUBLIC "-//W3C//DTD SVG 1.1//EN"
 "http://www.w3.org/Graphics/SVG/1.1/DTD/svg11.dtd">
<!-- Generated by graphviz version 2.30.1 (20130214.1453)
 -->
<!-- Title: component_services Pages: 1 -->
<svg width="446pt" height="300pt"
 viewBox="0.00 0.00 446.00 300.30" xmlns="http://www.w3.org/2000/svg" xmlns:xlink="http://www.w3.org/1999/xlink">
<g id="graph0" class="graph" transform="scale(1 1) rotate(0) translate(4 296.295)">
<title>component_services</title>
<polygon fill="white" stroke="white" points="-4,5 -4,-296.295 443,-296.295 443,5 -4,5"/>
<!-- forgeapp -->
<g id="node1" class="node"><title>forgeapp</title>
<ellipse fill="none" stroke="black" cx="156" cy="-176" rx="45.3703" ry="18"/>
<text text-anchor="middle" x="156" y="-170.4" font-family="Times,serif" font-size="14.00">forgeapp</text>
</g>
<!-- taskd -->
<g id="node3" class="node"><title>taskd</title>
<ellipse fill="none" stroke="black" cx="295" cy="-112" rx="31.3417" ry="18"/>
<text text-anchor="middle" x="295" y="-106.4" font-family="Times,serif" font-size="14.00">taskd</text>
</g>
<!-- forgeapp&#45;&#45;taskd -->
<g id="edge1" class="edge"><title>forgeapp&#45;&#45;taskd</title>
<path fill="none" stroke="black" d="M186.054,-162.427C211.032,-150.759 246.623,-134.132 270.009,-123.207"/>
</g>
<!-- mongodb -->
<g id="node5" class="node"><title>mongodb</title>
<polygon fill="none" stroke="black" points="437.39,-198 368.61,-198 368.61,-162 437.39,-162 437.39,-198"/>
<text text-anchor="middle" x="403" y="-174.4" font-family="Times,serif" font-size="14.00">mongodb</text>
</g>
<!-- forgeapp&#45;&#45;mongodb -->
<g id="edge2" class="edge"><title>forgeapp&#45;&#45;mongodb</title>
<path fill="none" stroke="black" d="M201.368,-176.724C249.493,-177.51 325.231,-178.747 368.576,-179.454"/>
</g>
<!-- redis -->
<g id="node6" class="node"><title>redis</title>
<polygon fill="none" stroke="black" points="430,-265 376,-265 376,-229 430,-229 430,-265"/>
<text text-anchor="middle" x="403" y="-241.4" font-family="Times,serif" font-size="14.00">redis</text>
</g>
<!-- forgeapp&#45;&#45;redis -->
<g id="edge3" class="edge"><title>forgeapp&#45;&#45;redis</title>
<path fill="none" stroke="black" d="M192.887,-186.4C242.73,-200.844 331.738,-226.638 375.802,-239.408"/>
</g>
<!-- solr -->
<g id="node7" class="node"><title>solr</title>
<polygon fill="none" stroke="black" points="430,-90 376,-90 376,-54 430,-54 430,-90"/>
<text text-anchor="middle" x="403" y="-66.4" font-family="Times,serif" font-size="14.00">solr</text>
</g>
<!-- forgeapp&#45;&#45;solr -->
<g id="edge4" class="edge"><title>forgeapp&#45;&#45;solr</title>
<path fill="none" stroke="black" d="M170.166,-158.658C187.611,-137.153 220.58,-101.339 258,-85 296.417,-68.2251 345.991,-67.804 375.818,-69.5387"/>
</g>
<!-- swift -->
<g id="node9" class="node"><title>swift</title>
<polygon fill="none" stroke="black" points="430,-36 376,-36 376,-0 430,-0 430,-36"/>
<text text-anchor="middle" x="403" y="-12.4" font-family="Times,serif" font-size="14.00">swift</text>
</g>
<!-- forgeapp&#45;&#45;swift -->
<g id="edge5" class="edge"><title>forgeapp&#45;&#45;swift</title>
<path fill="none" stroke="black" d="M168.569,-158.379C185.439,-134.01 219.056,-90.1828 258,-65 295.1,-41.0098 345.522,-28.2655 375.803,-22.3386"/>
</g>
<!-- websocketapp -->
<g id="node2" class="node"><title>websocketapp</title>
<ellipse fill="none" stroke="black" cx="156" cy="-260" rx="65.9784" ry="18"/>
<text text-anchor="middle" x="156" y="-254.4" font-family="Times,serif" font-size="14.00">websocketapp</text>
</g>
<!-- websocketapp&#45;&#45;forgeapp -->
<g id="edge16" class="edge"><title>websocketapp&#45;&#45;forgeapp</title>
<path fill="none" stroke="black" d="M156,-241.966C156,-225.993 156,-210.02 156,-194.047"/>
</g>
<!-- eventd -->
<g id="node4" class="node"><title>eventd</title>
<ellipse fill="none" stroke="black" cx="295" cy="-260" rx="36.5561" ry="18"/>
<text text-anchor="middle" x="295" y="-254.4" font-family="Times,serif" font-size="14.00">eventd</text>
</g>
<!-- websocketapp&#45;&#45;eventd -->
<g id="edge17" class="edge"><title>websocketapp&#45;&#45;eventd</title>
<path fill="none" stroke="black" d="M221.889,-260C234.338,-260 246.947,-260 258.064,-260"/>
</g>
<!-- websocketapp&#45;&#45;redis -->
<g id="edge18" class="edge"><title>websocketapp&#45;&#45;redis</title>
<path fill="none" stroke="black" d="M194.686,-274.662C230.453,-286.508 285.501,-299.348 332,-287 348.369,-282.653 364.902,-273.479 377.788,-265.012"/>
</g>
<!-- taskd&#45;&#45;taskd -->
<g id="edge6" class="edge"><title>taskd&#45;&#45;taskd</title>
<path fill="none" stroke="black" d="M276.93,-126.792C271.047,-137.417 277.07,-148 295,-148 312.93,-148 318.953,-137.417 313.07,-126.792"/>
</g>
<!-- taskd&#45;&#45;mongodb -->
<g id="edge7" class="edge"><title>taskd&#45;&#45;mongodb</title>
<path fill="none" stroke="black" d="M316.69,-125.273C332.957,-135.708 355.791,-150.357 373.743,-161.873"/>
</g>
<!-- taskd&#45;&#45;redis -->
<g id="edge8" class="edge"><title>taskd&#45;&#45;redis</title>
<path fill="none" stroke="black" d="M308.21,-128.691C322.315,-147.835 346.363,-180.051 368,-207 373.82,-214.249 380.4,-222.072 386.21,-228.86"/>
</g>
<!-- taskd&#45;&#45;solr -->
<g id="edge9" class="edge"><title>taskd&#45;&#45;solr</title>
<path fill="none" stroke="black" d="M321.66,-102.317C338.08,-96.1206 359.323,-88.1046 375.84,-81.8716"/>
</g>
<!-- smtp -->
<g id="node8" class="node"><title>smtp</title>
<polygon fill="none" stroke="black" points="430,-144 376,-144 376,-108 430,-108 430,-144"/>
<text text-anchor="middle" x="403" y="-120.4" font-family="Times,serif" font-size="14.00">smtp</text>
</g>
<!-- taskd&#45;&#45;smtp -->
<g id="edge10" class="edge"><title>taskd&#45;&#45;smtp</title>
<path fill="none" stroke="black" d="M325.809,-115.937C341.485,-118.007 360.533,-120.523 375.662,-122.521"/>
</g>
<!-- taskd&#45;&#45;swift -->
<g id="edge11" class="edge"><title>taskd&#45;&#45;swift</title>
<path fill="none" stroke="black" d="M311.687,-96.7326C326.058,-82.909 348.064,-62.146 368,-45 371.429,-42.051 375.118,-39.0012 378.757,-36.0599"/>
</g>
<!-- eventd&#45;&#45;forgeapp -->
<g id="edge12" class="edge"><title>eventd&#45;&#45;forgeapp</title>
<path fill="none" stroke="black" d="M271.086,-245.951C246.287,-230.746 206.891,-206.59 181.493,-191.018"/>
</g>
<!-- eventd&#45;&#45;taskd -->
<g id="edge13" class="edge"><title>eventd&#45;&#45;taskd</title>
<path fill="none" stroke="black" d="M295,-241.748C295,-204.569 295,-167.39 295,-130.211"/>
</g>
<!-- eventd&#45;&#45;mongodb -->
<g id="edge14" class="edge"><title>eventd&#45;&#45;mongodb</title>
<path fill="none" stroke="black" d="M315.938,-244.953C333.57,-231.646 359.329,-212.204 378.069,-198.061"/>
</g>
<!-- eventd&#45;&#45;redis -->
<g id="edge15" class="edge"><title>eventd&#45;&#45;redis</title>
<path fill="none" stroke="black" d="M331.002,-255.707C345.596,-253.918 362.255,-251.874 375.767,-250.217"/>
</g>
<!-- user -->
<g id="node10" class="node"><title>user</title>
<text text-anchor="middle" x="27" y="-212.4" font-family="Times,serif" font-size="14.00">user</text>
</g>
<!-- user&#45;&#45;forgeapp -->
<g id="edge19" class="edge"><title>user&#45;&#45;forgeapp</title>
<path fill="none" stroke="black" d="M54.0068,-209.399C73.3103,-203.016 99.8156,-194.25 120.829,-187.301"/>
</g>
<!-- user&#45;&#45;websocketapp -->
<g id="edge20" class="edge"><title>user&#45;&#45;websocketapp</title>
<path fill="none" stroke="black" d="M54.0068,-226.601C70.988,-232.217 93.5426,-239.675 113.029,-246.12"/>
</g>
</g>
</svg>
