<?xml version="1.0" encoding="UTF-8" standalone="no"?>
<!DOCTYPE svg PUBLIC "-//W3C//DTD SVG 1.1//EN"
 "http://www.w3.org/Graphics/SVG/1.1/DTD/svg11.dtd">
<!-- Generated by graphviz version 2.30.1 (20130214.1453)
 -->
<!-- Title: component_services Pages: 1 -->
<svg width="428pt" height="188pt"
 viewBox="0.00 0.00 428.00 188.00" xmlns="http://www.w3.org/2000/svg" xmlns:xlink="http://www.w3.org/1999/xlink">
<g id="graph0" class="graph" transform="scale(1 1) rotate(0) translate(4 184)">
<title>component_services</title>
<polygon fill="white" stroke="white" points="-4,5 -4,-184 425,-184 425,5 -4,5"/>
<!-- forgeapp -->
<g id="node1" class="node"><title>forgeapp</title>
<ellipse fill="none" stroke="black" cx="213" cy="-18" rx="45.3703" ry="18"/>
<text text-anchor="middle" x="213" y="-12.4" font-family="Times,serif" font-size="14.00">forgeapp</text>
</g>
<!-- taskd -->
<g id="node3" class="node"><title>taskd</title>
<ellipse fill="none" stroke="black" cx="250" cy="-90" rx="31.3417" ry="18"/>
<text text-anchor="middle" x="250" y="-84.4" font-family="Times,serif" font-size="14.00">taskd</text>
</g>
<!-- forgeapp&#45;&#45;taskd -->
<g id="edge1" class="edge"><title>forgeapp&#45;&#45;taskd</title>
<path fill="none" stroke="black" d="M221.957,-35.945C227.86,-47.1126 235.547,-61.6573 241.381,-72.693"/>
</g>
<!-- mongodb -->
<g id="node5" class="node"><title>mongodb</title>
<polygon fill="none" stroke="black" points="204.39,-180 135.61,-180 135.61,-144 204.39,-144 204.39,-180"/>
<text text-anchor="middle" x="170" y="-156.4" font-family="Times,serif" font-size="14.00">mongodb</text>
</g>
<!-- forgeapp&#45;&#45;mongodb -->
<g id="edge2" class="edge"><title>forgeapp&#45;&#45;mongodb</title>
<path fill="none" stroke="black" d="M207.813,-36.1285C199.548,-63.4216 183.482,-116.48 175.205,-143.811"/>
</g>
<!-- redis -->
<g id="node6" class="node"><title>redis</title>
<polygon fill="none" stroke="black" points="116,-180 62,-180 62,-144 116,-144 116,-180"/>
<text text-anchor="middle" x="89" y="-156.4" font-family="Times,serif" font-size="14.00">redis</text>
</g>
<!-- forgeapp&#45;&#45;redis -->
<g id="edge3" class="edge"><title>forgeapp&#45;&#45;redis</title>
<path fill="none" stroke="black" d="M198.776,-35.2892C175.238,-62.2434 128.391,-115.891 104.216,-143.575"/>
</g>
<!-- solr -->
<g id="node7" class="node"><title>solr</title>
<polygon fill="none" stroke="black" points="348,-180 294,-180 294,-144 348,-144 348,-180"/>
<text text-anchor="middle" x="321" y="-156.4" font-family="Times,serif" font-size="14.00">solr</text>
</g>
<!-- forgeapp&#45;&#45;solr -->
<g id="edge4" class="edge"><title>forgeapp&#45;&#45;solr</title>
<path fill="none" stroke="black" d="M247.846,-29.6249C268.66,-37.8207 293.745,-51.3182 308,-72 322.799,-93.4715 323.822,-124.804 322.745,-143.994"/>
</g>
<!-- swift -->
<g id="node9" class="node"><title>swift</title>
<polygon fill="none" stroke="black" points="420,-180 366,-180 366,-144 420,-144 420,-180"/>
<text text-anchor="middle" x="393" y="-156.4" font-family="Times,serif" font-size="14.00">swift</text>
</g>
<!-- forgeapp&#45;&#45;swift -->
<g id="edge5" class="edge"><title>forgeapp&#45;&#45;swift</title>
<path fill="none" stroke="black" d="M247.855,-29.5679C272.374,-38.2117 304.967,-52.2469 329,-72 353.7,-92.302 373.544,-124.287 384.268,-143.877"/>
</g>
<!-- websocketapp -->
<g id="node2" class="node"><title>websocketapp</title>
<ellipse fill="none" stroke="black" cx="65" cy="-18" rx="65.9784" ry="18"/>
<text text-anchor="middle" x="65" y="-12.4" font-family="Times,serif" font-size="14.00">websocketapp</text>
</g>
<!-- websocketapp&#45;&#45;forgeapp -->
<g id="edge16" class="edge"><title>websocketapp&#45;&#45;forgeapp</title>
<path fill="none" stroke="black" d="M130.617,-18C142.953,-18 155.289,-18 167.625,-18"/>
</g>
<!-- eventd -->
<g id="node4" class="node"><title>eventd</title>
<ellipse fill="none" stroke="black" cx="88" cy="-90" rx="36.5561" ry="18"/>
<text text-anchor="middle" x="88" y="-84.4" font-family="Times,serif" font-size="14.00">eventd</text>
</g>
<!-- websocketapp&#45;&#45;eventd -->
<g id="edge17" class="edge"><title>websocketapp&#45;&#45;eventd</title>
<path fill="none" stroke="black" d="M70.5677,-35.945C74.1307,-46.7889 78.7399,-60.817 82.3238,-71.7247"/>
</g>
<!-- websocketapp&#45;&#45;redis -->
<g id="edge18" class="edge"><title>websocketapp&#45;&#45;redis</title>
<path fill="none" stroke="black" d="M54.4448,-36.074C44.618,-54.2481 32.7697,-83.6795 42,-108 47.2366,-121.798 57.891,-134.305 67.7334,-143.701"/>
</g>
<!-- taskd&#45;&#45;taskd -->
<g id="edge6" class="edge"><title>taskd&#45;&#45;taskd</title>
<path fill="none" stroke="black" d="M272.427,-77.3973C286.08,-74.4788 299,-78.6797 299,-90 299,-101.32 286.08,-105.521 272.427,-102.603"/>
</g>
<!-- taskd&#45;&#45;mongodb -->
<g id="edge7" class="edge"><title>taskd&#45;&#45;mongodb</title>
<path fill="none" stroke="black" d="M233.424,-105.504C220.701,-116.637 203.096,-132.041 189.661,-143.796"/>
</g>
<!-- taskd&#45;&#45;redis -->
<g id="edge8" class="edge"><title>taskd&#45;&#45;redis</title>
<path fill="none" stroke="black" d="M225.453,-101.459C200.595,-112.079 161.064,-129.042 127,-144 123.559,-145.511 119.948,-147.11 116.378,-148.698"/>
</g>
<!-- taskd&#45;&#45;solr -->
<g id="edge9" class="edge"><title>taskd&#45;&#45;solr</title>
<path fill="none" stroke="black" d="M265.057,-105.845C276.374,-117.002 291.894,-132.304 303.717,-143.96"/>
</g>
<!-- smtp -->
<g id="node8" class="node"><title>smtp</title>
<polygon fill="none" stroke="black" points="276,-180 222,-180 222,-144 276,-144 276,-180"/>
<text text-anchor="middle" x="249" y="-156.4" font-family="Times,serif" font-size="14.00">smtp</text>
</g>
<!-- taskd&#45;&#45;smtp -->
<g id="edge10" class="edge"><title>taskd&#45;&#45;smtp</title>
<path fill="none" stroke="black" d="M249.753,-108.303C249.598,-119.154 249.399,-133.083 249.244,-143.896"/>
</g>
<!-- taskd&#45;&#45;swift -->
<g id="edge11" class="edge"><title>taskd&#45;&#45;swift</title>
<path fill="none" stroke="black" d="M272.975,-102.247C298.24,-114.614 338.808,-134.473 365.682,-147.627"/>
</g>
<!-- eventd&#45;&#45;forgeapp -->
<g id="edge12" class="edge"><title>eventd&#45;&#45;forgeapp</title>
<path fill="none" stroke="black" d="M111.263,-75.9726C133.089,-63.7503 165.633,-45.5253 188.005,-32.9973"/>
</g>
<!-- eventd&#45;&#45;taskd -->
<g id="edge13" class="edge"><title>eventd&#45;&#45;taskd</title>
<path fill="none" stroke="black" d="M124.703,-90C156.027,-90 187.352,-90 218.676,-90"/>
</g>
<!-- eventd&#45;&#45;mongodb -->
<g id="edge14" class="edge"><title>eventd&#45;&#45;mongodb</title>
<path fill="none" stroke="black" d="M105.39,-105.845C118.46,-117.002 136.384,-132.304 150.039,-143.96"/>
</g>
<!-- eventd&#45;&#45;redis -->
<g id="edge15" class="edge"><title>eventd&#45;&#45;redis</title>
<path fill="none" stroke="black" d="M88.2472,-108.303C88.4022,-119.154 88.6012,-133.083 88.7557,-143.896"/>
</g>
</g>
</svg>
