<?xml version="1.0" encoding="UTF-8" standalone="no"?>
<!DOCTYPE svg PUBLIC "-//W3C//DTD SVG 1.1//EN"
 "http://www.w3.org/Graphics/SVG/1.1/DTD/svg11.dtd">
<!-- Generated by graphviz version 2.30.1 (20130214.1453)
 -->
<!-- Title: core_object_classes Pages: 1 -->
<svg width="310pt" height="285pt"
 viewBox="0.00 0.00 310.00 284.80" xmlns="http://www.w3.org/2000/svg" xmlns:xlink="http://www.w3.org/1999/xlink">
<g id="graph0" class="graph" transform="scale(1 1) rotate(0) translate(4 280.8)">
<title>core_object_classes</title>
<polygon fill="white" stroke="white" points="-4,5 -4,-280.8 307,-280.8 307,5 -4,5"/>
<text text-anchor="middle" x="151" y="-6.8" font-family="Times,serif" font-size="14.00">* denotes an abstract class</text>
<!-- ProjectRole -->
<g id="node1" class="node"><title>ProjectRole</title>
<ellipse fill="none" stroke="black" cx="56" cy="-114.8" rx="56.7579" ry="18"/>
<text text-anchor="middle" x="56" y="-109.2" font-family="Times,serif" font-size="14.00">ProjectRole</text>
</g>
<!-- User -->
<g id="node2" class="node"><title>User</title>
<ellipse fill="none" stroke="black" cx="37" cy="-186.8" rx="29.043" ry="18"/>
<text text-anchor="middle" x="37" y="-181.2" font-family="Times,serif" font-size="14.00">User</text>
</g>
<!-- ProjectRole&#45;&gt;User -->
<g id="edge1" class="edge"><title>ProjectRole&#45;&gt;User</title>
<path fill="none" stroke="black" d="M51.4006,-132.745C49.2535,-140.655 46.6465,-150.26 44.2439,-159.112"/>
<polygon fill="black" stroke="black" points="40.7988,-158.443 41.557,-169.011 47.5544,-160.277 40.7988,-158.443"/>
</g>
<!-- Project -->
<g id="node3" class="node"><title>Project</title>
<ellipse fill="none" stroke="black" cx="123" cy="-186.8" rx="38.2803" ry="18"/>
<text text-anchor="middle" x="123" y="-181.2" font-family="Times,serif" font-size="14.00">Project</text>
</g>
<!-- ProjectRole&#45;&gt;Project -->
<g id="edge2" class="edge"><title>ProjectRole&#45;&gt;Project</title>
<path fill="none" stroke="black" d="M71.8781,-132.389C80.4277,-141.321 91.118,-152.49 100.509,-162.302"/>
<polygon fill="black" stroke="black" points="98.254,-165.008 107.697,-169.812 103.311,-160.168 98.254,-165.008"/>
</g>
<!-- Neighborhood -->
<g id="node4" class="node"><title>Neighborhood</title>
<ellipse fill="none" stroke="black" cx="123" cy="-258.8" rx="66.647" ry="18"/>
<text text-anchor="middle" x="123" y="-253.2" font-family="Times,serif" font-size="14.00">Neighborhood</text>
</g>
<!-- Project&#45;&gt;Neighborhood -->
<g id="edge3" class="edge"><title>Project&#45;&gt;Neighborhood</title>
<path fill="none" stroke="black" d="M123,-205.103C123,-212.817 123,-222.088 123,-230.688"/>
<polygon fill="black" stroke="black" points="119.5,-230.696 123,-240.696 126.5,-230.696 119.5,-230.696"/>
</g>
<!-- AppConfig -->
<g id="node5" class="node"><title>AppConfig</title>
<ellipse fill="none" stroke="black" cx="222" cy="-114.8" rx="53.9293" ry="18"/>
<text text-anchor="middle" x="222" y="-109.2" font-family="Times,serif" font-size="14.00">AppConfig</text>
</g>
<!-- AppConfig&#45;&gt;Project -->
<g id="edge4" class="edge"><title>AppConfig&#45;&gt;Project</title>
<path fill="none" stroke="black" d="M200.029,-131.335C185.705,-141.463 166.873,-154.778 151.415,-165.708"/>
<polygon fill="black" stroke="black" points="149.369,-162.869 143.224,-171.5 153.41,-168.584 149.369,-162.869"/>
</g>
<!-- Application* -->
<g id="node6" class="node"><title>Application*</title>
<ellipse fill="none" stroke="black" cx="241" cy="-186.8" rx="61.4146" ry="18"/>
<text text-anchor="middle" x="241" y="-181.2" font-family="Times,serif" font-size="14.00">Application*</text>
</g>
<!-- AppConfig&#45;&gt;Application* -->
<g id="edge5" class="edge"><title>AppConfig&#45;&gt;Application*</title>
<path fill="none" stroke="black" d="M226.599,-132.745C228.715,-140.539 231.277,-149.978 233.65,-158.721"/>
<polygon fill="black" stroke="black" points="230.314,-159.791 236.311,-168.525 237.069,-157.957 230.314,-159.791"/>
</g>
<!-- Artifact* -->
<g id="node7" class="node"><title>Artifact*</title>
<ellipse fill="none" stroke="black" cx="222" cy="-42.8" rx="45.7843" ry="18"/>
<text text-anchor="middle" x="222" y="-37.2" font-family="Times,serif" font-size="14.00">Artifact*</text>
</g>
<!-- Artifact*&#45;&gt;AppConfig -->
<g id="edge6" class="edge"><title>Artifact*&#45;&gt;AppConfig</title>
<path fill="none" stroke="black" d="M222,-61.1034C222,-68.8173 222,-78.0875 222,-86.6876"/>
<polygon fill="black" stroke="black" points="218.5,-86.6956 222,-96.6957 225.5,-86.6957 218.5,-86.6956"/>
</g>
</g>
</svg>
