<?xml version="1.0" encoding="UTF-8" standalone="no"?>
<!DOCTYPE svg PUBLIC "-//W3C//DTD SVG 1.1//EN"
 "http://www.w3.org/Graphics/SVG/1.1/DTD/svg11.dtd">
<!-- Generated by graphviz version 2.30.1 (20130214.1453)
 -->
<!-- Title: inheritance8864732391 Pages: 1 -->
<svg width="576pt" height="17pt"
 viewBox="0.00 0.00 576.00 17.25" xmlns="http://www.w3.org/2000/svg" xmlns:xlink="http://www.w3.org/1999/xlink">
<g id="graph0" class="graph" transform="scale(0.57485 0.57485) rotate(0) translate(4 26)">
<title>inheritance8864732391</title>
<polygon fill="white" stroke="white" points="-4,5 -4,-26 999,-26 999,5 -4,5"/>
<!-- ming.odm.declarative.MappedClass -->
<g id="node1" class="node"><title>ming.odm.declarative.MappedClass</title>
<polygon fill="none" stroke="black" stroke-width="0.5" points="188.442,-22.1332 -0.441924,-22.1332 -0.441924,0.133213 188.442,0.133213 188.442,-22.1332"/>
<text text-anchor="middle" x="94" y="-8.06641" font-family="Vera Sans, DejaVu Sans, Liberation Sans, Arial, Helvetica, sans" font-size="10.00">ming.odm.declarative.MappedClass</text>
</g>
<!-- vulcanforge.common.model.base.BaseMappedClass -->
<g id="node2" class="node"><title>vulcanforge.common.model.base.BaseMappedClass</title>
<polygon fill="none" stroke="black" stroke-width="0.5" points="491.062,-22.1332 224.938,-22.1332 224.938,0.133213 491.062,0.133213 491.062,-22.1332"/>
<text text-anchor="middle" x="358" y="-8.06641" font-family="Vera Sans, DejaVu Sans, Liberation Sans, Arial, Helvetica, sans" font-size="10.00">vulcanforge.common.model.base.BaseMappedClass</text>
</g>
<!-- ming.odm.declarative.MappedClass&#45;&gt;vulcanforge.common.model.base.BaseMappedClass -->
<g id="edge1" class="edge"><title>ming.odm.declarative.MappedClass&#45;&gt;vulcanforge.common.model.base.BaseMappedClass</title>
<path fill="none" stroke="black" stroke-width="0.5" d="M188.478,-11C198.582,-11 209.01,-11 219.495,-11"/>
<polygon fill="black" stroke="black" points="219.645,-12.7501 224.645,-11 219.645,-9.2501 219.645,-12.7501"/>
</g>
<!-- vulcanforge.common.model.index.SOLRIndexed -->
<g id="node3" class="node"><title>vulcanforge.common.model.index.SOLRIndexed</title>
<g id="a_node3"><a xlink:title="The base class for SOLR indexed objects. Objects can extend this just like">
<polygon fill="none" stroke="black" stroke-width="0.5" points="777.371,-22.1332 528.629,-22.1332 528.629,0.133213 777.371,0.133213 777.371,-22.1332"/>
<text text-anchor="middle" x="653" y="-8.06641" font-family="Vera Sans, DejaVu Sans, Liberation Sans, Arial, Helvetica, sans" font-size="10.00">vulcanforge.common.model.index.SOLRIndexed</text>
</a>
</g>
</g>
<!-- vulcanforge.common.model.base.BaseMappedClass&#45;&gt;vulcanforge.common.model.index.SOLRIndexed -->
<g id="edge2" class="edge"><title>vulcanforge.common.model.base.BaseMappedClass&#45;&gt;vulcanforge.common.model.index.SOLRIndexed</title>
<path fill="none" stroke="black" stroke-width="0.5" d="M491.356,-11C501.913,-11 512.568,-11 523.1,-11"/>
<polygon fill="black" stroke="black" points="523.26,-12.7501 528.26,-11 523.26,-9.2501 523.26,-12.7501"/>
</g>
<!-- vulcanforge.project.model.Project -->
<g id="node4" class="node"><title>vulcanforge.project.model.Project</title>
<g id="a_node4"><a xlink:href="#vulcanforge.project.model.Project" xlink:title="vulcanforge.project.model.Project">
<polygon fill="none" stroke="black" stroke-width="0.5" points="993.809,-22.1332 814.191,-22.1332 814.191,0.133213 993.809,0.133213 993.809,-22.1332"/>
<text text-anchor="middle" x="904" y="-8.06641" font-family="Vera Sans, DejaVu Sans, Liberation Sans, Arial, Helvetica, sans" font-size="10.00">vulcanforge.project.model.Project</text>
</a>
</g>
</g>
<!-- vulcanforge.common.model.index.SOLRIndexed&#45;&gt;vulcanforge.project.model.Project -->
<g id="edge3" class="edge"><title>vulcanforge.common.model.index.SOLRIndexed&#45;&gt;vulcanforge.project.model.Project</title>
<path fill="none" stroke="black" stroke-width="0.5" d="M777.406,-11C788.02,-11 798.645,-11 808.972,-11"/>
<polygon fill="black" stroke="black" points="809.017,-12.7501 814.016,-11 809.016,-9.2501 809.017,-12.7501"/>
</g>
</g>
</svg>
