<?xml version="1.0" encoding="UTF-8" standalone="no"?>
<!DOCTYPE svg PUBLIC "-//W3C//DTD SVG 1.1//EN"
 "http://www.w3.org/Graphics/SVG/1.1/DTD/svg11.dtd">
<!-- Generated by graphviz version 2.30.1 (20130214.1453)
 -->
<!-- Title: inheritance599dbb3850 Pages: 1 -->
<svg width="576pt" height="56pt"
 viewBox="0.00 0.00 576.00 56.00" xmlns="http://www.w3.org/2000/svg" xmlns:xlink="http://www.w3.org/1999/xlink">
<g id="graph0" class="graph" transform="scale(0.8 0.8) rotate(0) translate(4 66)">
<title>inheritance599dbb3850</title>
<polygon fill="white" stroke="white" points="-4,5 -4,-66 717,-66 717,5 -4,5"/>
<!-- ming.odm.declarative.MappedClass -->
<g id="node1" class="node"><title>ming.odm.declarative.MappedClass</title>
<polygon fill="none" stroke="black" stroke-width="0.5" points="188.442,-62.1332 -0.441924,-62.1332 -0.441924,-39.8668 188.442,-39.8668 188.442,-62.1332"/>
<text text-anchor="middle" x="94" y="-48.0664" font-family="Vera Sans, DejaVu Sans, Liberation Sans, Arial, Helvetica, sans" font-size="10.00">ming.odm.declarative.MappedClass</text>
</g>
<!-- vulcanforge.common.model.base.BaseMappedClass -->
<g id="node3" class="node"><title>vulcanforge.common.model.base.BaseMappedClass</title>
<polygon fill="none" stroke="black" stroke-width="0.5" points="491.062,-62.1332 224.938,-62.1332 224.938,-39.8668 491.062,-39.8668 491.062,-62.1332"/>
<text text-anchor="middle" x="358" y="-48.0664" font-family="Vera Sans, DejaVu Sans, Liberation Sans, Arial, Helvetica, sans" font-size="10.00">vulcanforge.common.model.base.BaseMappedClass</text>
</g>
<!-- ming.odm.declarative.MappedClass&#45;&gt;vulcanforge.common.model.base.BaseMappedClass -->
<g id="edge3" class="edge"><title>ming.odm.declarative.MappedClass&#45;&gt;vulcanforge.common.model.base.BaseMappedClass</title>
<path fill="none" stroke="black" stroke-width="0.5" d="M188.478,-51C198.582,-51 209.01,-51 219.495,-51"/>
<polygon fill="black" stroke="black" points="219.645,-52.7501 224.645,-51 219.645,-49.2501 219.645,-52.7501"/>
</g>
<!-- vulcanforge.artifact.model.Artifact -->
<g id="node2" class="node"><title>vulcanforge.artifact.model.Artifact</title>
<g id="a_node2"><a xlink:href="#vulcanforge.artifact.model.Artifact" xlink:title="The base class for anything you want to keep track of.">
<polygon fill="none" stroke="black" stroke-width="0.5" points="711.058,-42.1332 528.942,-42.1332 528.942,-19.8668 711.058,-19.8668 711.058,-42.1332"/>
<text text-anchor="middle" x="620" y="-28.0664" font-family="Vera Sans, DejaVu Sans, Liberation Sans, Arial, Helvetica, sans" font-size="10.00">vulcanforge.artifact.model.Artifact</text>
</a>
</g>
</g>
<!-- vulcanforge.common.model.base.BaseMappedClass&#45;&gt;vulcanforge.artifact.model.Artifact -->
<g id="edge1" class="edge"><title>vulcanforge.common.model.base.BaseMappedClass&#45;&gt;vulcanforge.artifact.model.Artifact</title>
<path fill="none" stroke="black" stroke-width="0.5" d="M491.285,-40.8242C502.174,-39.9866 513.041,-39.1507 523.581,-38.3399"/>
<polygon fill="black" stroke="black" points="523.876,-40.0725 528.727,-37.944 523.608,-36.5828 523.876,-40.0725"/>
</g>
<!-- vulcanforge.artifact.model.ArtifactApiMixin -->
<g id="node4" class="node"><title>vulcanforge.artifact.model.ArtifactApiMixin</title>
<g id="a_node4"><a xlink:href="#vulcanforge.artifact.model.ArtifactApiMixin" xlink:title="Objects that behave as artifacts within the forge need to">
<polygon fill="none" stroke="black" stroke-width="0.5" points="470.875,-22.1332 245.125,-22.1332 245.125,0.133213 470.875,0.133213 470.875,-22.1332"/>
<text text-anchor="middle" x="358" y="-8.06641" font-family="Vera Sans, DejaVu Sans, Liberation Sans, Arial, Helvetica, sans" font-size="10.00">vulcanforge.artifact.model.ArtifactApiMixin</text>
</a>
</g>
</g>
<!-- vulcanforge.artifact.model.ArtifactApiMixin&#45;&gt;vulcanforge.artifact.model.Artifact -->
<g id="edge2" class="edge"><title>vulcanforge.artifact.model.ArtifactApiMixin&#45;&gt;vulcanforge.artifact.model.Artifact</title>
<path fill="none" stroke="black" stroke-width="0.5" d="M470.772,-19.5979C488.359,-20.9507 506.401,-22.3385 523.574,-23.6595"/>
<polygon fill="black" stroke="black" points="523.755,-25.4285 528.874,-24.0672 524.023,-21.9388 523.755,-25.4285"/>
</g>
</g>
</svg>
