<?xml version="1.0" encoding="UTF-8" standalone="no"?>
<!DOCTYPE svg PUBLIC "-//W3C//DTD SVG 1.1//EN"
 "http://www.w3.org/Graphics/SVG/1.1/DTD/svg11.dtd">
<!-- Generated by graphviz version 2.30.1 (20130214.1453)
 -->
<!-- Title: inheritance18732ccd88 Pages: 1 -->
<svg width="576pt" height="22pt"
 viewBox="0.00 0.00 576.00 21.93" xmlns="http://www.w3.org/2000/svg" xmlns:xlink="http://www.w3.org/1999/xlink">
<g id="graph0" class="graph" transform="scale(0.730964 0.730964) rotate(0) translate(4 26)">
<title>inheritance18732ccd88</title>
<polygon fill="white" stroke="white" points="-4,5 -4,-26 785,-26 785,5 -4,5"/>
<!-- ming.odm.declarative.MappedClass -->
<g id="node1" class="node"><title>ming.odm.declarative.MappedClass</title>
<polygon fill="none" stroke="black" stroke-width="0.5" points="188.442,-22.1332 -0.441924,-22.1332 -0.441924,0.133213 188.442,0.133213 188.442,-22.1332"/>
<text text-anchor="middle" x="94" y="-8.06641" font-family="Vera Sans, DejaVu Sans, Liberation Sans, Arial, Helvetica, sans" font-size="10.00">ming.odm.declarative.MappedClass</text>
</g>
<!-- vulcanforge.common.model.base.BaseMappedClass -->
<g id="node2" class="node"><title>vulcanforge.common.model.base.BaseMappedClass</title>
<polygon fill="none" stroke="black" stroke-width="0.5" points="491.062,-22.1332 224.938,-22.1332 224.938,0.133213 491.062,0.133213 491.062,-22.1332"/>
<text text-anchor="middle" x="358" y="-8.06641" font-family="Vera Sans, DejaVu Sans, Liberation Sans, Arial, Helvetica, sans" font-size="10.00">vulcanforge.common.model.base.BaseMappedClass</text>
</g>
<!-- ming.odm.declarative.MappedClass&#45;&gt;vulcanforge.common.model.base.BaseMappedClass -->
<g id="edge1" class="edge"><title>ming.odm.declarative.MappedClass&#45;&gt;vulcanforge.common.model.base.BaseMappedClass</title>
<path fill="none" stroke="black" stroke-width="0.5" d="M188.478,-11C198.582,-11 209.01,-11 219.495,-11"/>
<polygon fill="black" stroke="black" points="219.645,-12.7501 224.645,-11 219.645,-9.2501 219.645,-12.7501"/>
</g>
<!-- vulcanforge.neighborhood.model.Neighborhood -->
<g id="node3" class="node"><title>vulcanforge.neighborhood.model.Neighborhood</title>
<g id="a_node3"><a xlink:href="#vulcanforge.neighborhood.model.Neighborhood" xlink:title="Provide a grouping of related projects.">
<polygon fill="none" stroke="black" stroke-width="0.5" points="779.095,-22.1332 528.905,-22.1332 528.905,0.133213 779.095,0.133213 779.095,-22.1332"/>
<text text-anchor="middle" x="654" y="-8.06641" font-family="Vera Sans, DejaVu Sans, Liberation Sans, Arial, Helvetica, sans" font-size="10.00">vulcanforge.neighborhood.model.Neighborhood</text>
</a>
</g>
</g>
<!-- vulcanforge.common.model.base.BaseMappedClass&#45;&gt;vulcanforge.neighborhood.model.Neighborhood -->
<g id="edge2" class="edge"><title>vulcanforge.common.model.base.BaseMappedClass&#45;&gt;vulcanforge.neighborhood.model.Neighborhood</title>
<path fill="none" stroke="black" stroke-width="0.5" d="M491.379,-11C501.988,-11 512.7,-11 523.291,-11"/>
<polygon fill="black" stroke="black" points="523.479,-12.7501 528.479,-11 523.479,-9.2501 523.479,-12.7501"/>
</g>
</g>
</svg>
