<?xml version="1.0" encoding="UTF-8" standalone="no"?>
<!DOCTYPE svg PUBLIC "-//W3C//DTD SVG 1.1//EN"
 "http://www.w3.org/Graphics/SVG/1.1/DTD/svg11.dtd">
<!-- Generated by graphviz version 2.30.1 (20130214.1453)
 -->
<!-- Title: inheritance8730766077 Pages: 1 -->
<svg width="576pt" height="18pt"
 viewBox="0.00 0.00 576.00 17.67" xmlns="http://www.w3.org/2000/svg" xmlns:xlink="http://www.w3.org/1999/xlink">
<g id="graph0" class="graph" transform="scale(0.588957 0.588957) rotate(0) translate(4 26)">
<title>inheritance8730766077</title>
<polygon fill="white" stroke="white" points="-4,5 -4,-26 975,-26 975,5 -4,5"/>
<!-- ming.odm.declarative.MappedClass -->
<g id="node1" class="node"><title>ming.odm.declarative.MappedClass</title>
<polygon fill="none" stroke="black" stroke-width="0.5" points="188.442,-22.1332 -0.441924,-22.1332 -0.441924,0.133213 188.442,0.133213 188.442,-22.1332"/>
<text text-anchor="middle" x="94" y="-8.06641" font-family="Vera Sans, DejaVu Sans, Liberation Sans, Arial, Helvetica, sans" font-size="10.00">ming.odm.declarative.MappedClass</text>
</g>
<!-- vulcanforge.common.model.base.BaseMappedClass -->
<g id="node4" class="node"><title>vulcanforge.common.model.base.BaseMappedClass</title>
<polygon fill="none" stroke="black" stroke-width="0.5" points="491.062,-22.1332 224.938,-22.1332 224.938,0.133213 491.062,0.133213 491.062,-22.1332"/>
<text text-anchor="middle" x="358" y="-8.06641" font-family="Vera Sans, DejaVu Sans, Liberation Sans, Arial, Helvetica, sans" font-size="10.00">vulcanforge.common.model.base.BaseMappedClass</text>
</g>
<!-- ming.odm.declarative.MappedClass&#45;&gt;vulcanforge.common.model.base.BaseMappedClass -->
<g id="edge2" class="edge"><title>ming.odm.declarative.MappedClass&#45;&gt;vulcanforge.common.model.base.BaseMappedClass</title>
<path fill="none" stroke="black" stroke-width="0.5" d="M188.478,-11C198.582,-11 209.01,-11 219.495,-11"/>
<polygon fill="black" stroke="black" points="219.645,-12.7501 224.645,-11 219.645,-9.2501 219.645,-12.7501"/>
</g>
<!-- vulcanforge.auth.model.User -->
<g id="node2" class="node"><title>vulcanforge.auth.model.User</title>
<g id="a_node2"><a xlink:href="#vulcanforge.auth.model.User" xlink:title="Vulcan&#39;s representation of individual human users.">
<polygon fill="none" stroke="black" stroke-width="0.5" points="969.932,-22.1332 814.068,-22.1332 814.068,0.133213 969.932,0.133213 969.932,-22.1332"/>
<text text-anchor="middle" x="892" y="-8.06641" font-family="Vera Sans, DejaVu Sans, Liberation Sans, Arial, Helvetica, sans" font-size="10.00">vulcanforge.auth.model.User</text>
</a>
</g>
</g>
<!-- vulcanforge.common.model.index.SOLRIndexed -->
<g id="node3" class="node"><title>vulcanforge.common.model.index.SOLRIndexed</title>
<g id="a_node3"><a xlink:title="The base class for SOLR indexed objects. Objects can extend this just like">
<polygon fill="none" stroke="black" stroke-width="0.5" points="777.371,-22.1332 528.629,-22.1332 528.629,0.133213 777.371,0.133213 777.371,-22.1332"/>
<text text-anchor="middle" x="653" y="-8.06641" font-family="Vera Sans, DejaVu Sans, Liberation Sans, Arial, Helvetica, sans" font-size="10.00">vulcanforge.common.model.index.SOLRIndexed</text>
</a>
</g>
</g>
<!-- vulcanforge.common.model.index.SOLRIndexed&#45;&gt;vulcanforge.auth.model.User -->
<g id="edge1" class="edge"><title>vulcanforge.common.model.index.SOLRIndexed&#45;&gt;vulcanforge.auth.model.User</title>
<path fill="none" stroke="black" stroke-width="0.5" d="M777.706,-11C788.219,-11 798.678,-11 808.75,-11"/>
<polygon fill="black" stroke="black" points="808.98,-12.7501 813.98,-11 808.98,-9.2501 808.98,-12.7501"/>
</g>
<!-- vulcanforge.common.model.base.BaseMappedClass&#45;&gt;vulcanforge.common.model.index.SOLRIndexed -->
<g id="edge3" class="edge"><title>vulcanforge.common.model.base.BaseMappedClass&#45;&gt;vulcanforge.common.model.index.SOLRIndexed</title>
<path fill="none" stroke="black" stroke-width="0.5" d="M491.356,-11C501.913,-11 512.568,-11 523.1,-11"/>
<polygon fill="black" stroke="black" points="523.26,-12.7501 528.26,-11 523.26,-9.2501 523.26,-12.7501"/>
</g>
</g>
</svg>
